<?xml version="1.0" encoding="UTF-8" standalone="no"?><!DOCTYPE svg PUBLIC "-//W3C//DTD SVG 1.1//EN" "http://www.w3.org/Graphics/SVG/1.1/DTD/svg11.dtd"><svg width="100%" height="100%" viewBox="0 0 513 513" version="1.1" xmlns="http://www.w3.org/2000/svg" xmlns:xlink="http://www.w3.org/1999/xlink" xml:space="preserve" xmlns:serif="http://www.serif.com/" style="fill-rule:evenodd;clip-rule:evenodd;stroke-linecap:round;stroke-miterlimit:1;"><rect id="monogram" x="0.727" y="0.203" width="512" height="512" style="fill:none;"/><circle cx="256.727" cy="256.203" r="224" style="fill:#9cc6fa;stroke:#9cc6fa;stroke-width:14.58px;"/><g><path d="M192.285,106.203l54.857,0c35.428,0 64.5,6 87.214,18c22.714,12 39.571,29.286 50.571,51.857c11,22.572 16.5,49.572 16.5,81c0,30.857 -5.5,57.429 -16.5,79.715c-11,22.285 -27.857,39.428 -50.571,51.428c-22.714,12 -51.786,18 -87.214,18l-54.857,0l-0,-24.857l54.857,-0c30.285,-0 54.428,-5 72.428,-15c18,-10 31,-24.286 39,-42.857c8,-18.572 12,-40.714 12,-66.429c0,-26 -4,-48.428 -12,-67.285c-8,-18.858 -21,-33.358 -39,-43.5c-18,-10.143 -42.143,-15.215 -72.428,-15.215l-54.857,0l-0,-24.857Z" style="fill:#00286a;"/><g><path d="M220.059,224.543c30.035,3.527 52.497,11.022 52.497,32.941c-0,21.919 -16.672,35.295 -44.923,35.295c-28.252,0 -75.145,-12.175 -103.897,-22.349" style="fill:none;fill-rule:nonzero;stroke:#000;stroke-width:19.17px;stroke-miterlimit:4;"/><path d="M231.824,258.825c-25.024,-1.988 -78.752,-8.948 -93.468,-20.88" style="fill:none;fill-rule:nonzero;stroke:#000;stroke-width:19.17px;stroke-miterlimit:4;"/><path d="M146.877,162.689c-4.511,4.764 -8.689,9.846 -12.501,15.208c2.792,1.409 5.696,2.802 8.677,4.163c15.791,7.204 35.046,14.073 54.245,18.005c5.186,1.062 10.251,-2.28 11.313,-7.465c1.061,-5.186 -2.282,-10.25 -7.466,-11.312c-17.513,-3.587 -35.383,-9.935 -50.135,-16.666c-1.418,-0.646 -2.795,-1.292 -4.133,-1.933Z"/><path d="M127.985,187.743c-3.243,5.483 -6.122,11.207 -8.604,17.139c4.562,2.117 9.461,4.243 14.468,6.315c16.506,6.832 34.717,13.299 47.028,17.191c5.046,1.595 10.431,-1.203 12.026,-6.25c1.596,-5.046 -1.203,-10.431 -6.249,-12.026c-11.82,-3.736 -29.512,-10.017 -45.475,-16.625c-4.648,-1.923 -9.103,-3.856 -13.194,-5.744Z"/><path d="M173.884,140.489c-6.126,3.868 -11.93,8.198 -17.363,12.941c13.86,6.957 28.627,12.99 40.135,14.694c5.235,0.775 10.109,-2.84 10.883,-8.076c0.775,-5.236 -2.84,-10.109 -8.076,-10.884c-6.679,-0.989 -15.747,-4.219 -25.579,-8.675Z"/><path d="M118.855,311.494c4.822,1.355 9.706,2.755 14.639,4.168l0.001,0c7.449,2.134 15.011,4.301 22.643,6.401c26.738,7.36 54.25,13.874 78.14,13.874c24.136,0 45.685,-6.649 61.37,-19.933c15.869,-13.44 24.882,-32.97 24.882,-56.735c0,-24.008 -9.84,-43.493 -25.93,-56.805c-15.906,-13.159 -37.364,-19.863 -60.322,-19.863c-5.292,0 -9.583,4.291 -9.583,9.584c-0,5.293 4.291,9.583 9.583,9.583c19.386,0 36.261,5.667 48.104,15.465c11.659,9.645 18.981,23.703 18.981,42.036c0,18.578 -6.865,32.592 -18.102,42.109c-11.422,9.672 -28.207,15.393 -48.983,15.393c-21.02,-0 -46.274,-5.818 -73.054,-13.187c-7.14,-1.966 -14.403,-4.047 -21.685,-6.132c-9.211,-2.64 -18.451,-5.287 -27.513,-7.72c1.691,7.5 3.986,14.772 6.829,21.762Z"/><path d="M146.574,354.641c24.427,8.157 51.549,14.283 78.011,14.283c39.994,-0 73.186,-8.612 96.559,-27.161c23.737,-18.838 36.008,-46.858 36.008,-82.494c-0,-36.021 -13.959,-63.36 -37.725,-81.411c-23.397,-17.771 -55.329,-25.828 -90.417,-25.828c-5.293,0 -9.584,4.291 -9.584,9.584c0,5.293 4.291,9.583 9.584,9.583c32.49,0 59.837,7.502 78.824,21.924c18.619,14.142 30.151,35.631 30.151,66.148c-0,30.903 -10.408,52.919 -28.756,67.481c-18.713,14.851 -47.011,23.007 -84.644,23.007c-33.532,-0 -69.261,-11.036 -98.628,-23.392c5.684,10.288 12.625,19.781 20.617,28.276Z"/></g></g></svg>