<?xml version="1.0" encoding="UTF-8" standalone="no"?><!DOCTYPE svg PUBLIC "-//W3C//DTD SVG 1.1//EN" "http://www.w3.org/Graphics/SVG/1.1/DTD/svg11.dtd"><svg width="100%" height="100%" viewBox="0 0 1478 472" version="1.1" xmlns="http://www.w3.org/2000/svg" xmlns:xlink="http://www.w3.org/1999/xlink" xml:space="preserve" xmlns:serif="http://www.serif.com/" style="fill-rule:evenodd;clip-rule:evenodd;stroke-linecap:round;stroke-miterlimit:1;"><rect id="dicaire-ovale" serif:id="dicaire ovale" x="0.987" y="0.365" width="1476.8" height="471.3" style="fill:none;"/><g><ellipse cx="739.387" cy="236.015" rx="664.092" ry="161.334" style="fill:none;stroke:#00286a;stroke-width:14.58px;"/><g><path d="M365.415,305.215l-0,-100.8l14,-0l-0,100.8l-14,-0Zm7,-124.6c-2.8,-0 -5.2,-0.967 -7.2,-2.9c-2,-1.934 -3,-4.367 -3,-7.3c-0,-3.067 0.966,-5.5 2.9,-7.3c1.933,-1.8 4.366,-2.7 7.3,-2.7c2.666,-0 5,0.9 7,2.7c2,1.8 3,4.233 3,7.3c-0,2.933 -0.967,5.366 -2.9,7.3c-1.934,1.933 -4.3,2.9 -7.1,2.9Z" style="fill:#00286a;fill-rule:nonzero;"/><path d="M454.015,307.615c-9.2,-0 -17.5,-2.2 -24.9,-6.6c-7.4,-4.4 -13.234,-10.567 -17.5,-18.5c-4.267,-7.934 -6.4,-17.1 -6.4,-27.5c-0,-10.8 2.133,-20.1 6.4,-27.9c4.266,-7.8 10.1,-13.934 17.5,-18.4c7.4,-4.467 15.7,-6.7 24.9,-6.7c11.733,-0 21.5,3.033 29.3,9.1c7.8,6.066 12.766,14.1 14.9,24.1l-14,-0c-1.467,-6.667 -4.967,-11.834 -10.5,-15.5c-5.534,-3.667 -12.1,-5.5 -19.7,-5.5c-6.134,-0 -11.8,1.5 -17,4.5c-5.2,3 -9.4,7.5 -12.6,13.5c-3.2,6 -4.8,13.6 -4.8,22.8c-0,6.8 0.933,12.733 2.8,17.8c1.866,5.066 4.433,9.3 7.7,12.7c3.266,3.4 6.933,5.966 11,7.7c4.066,1.733 8.366,2.6 12.9,2.6c4.933,-0 9.5,-0.834 13.7,-2.5c4.2,-1.667 7.766,-4.1 10.7,-7.3c2.933,-3.2 4.866,-7.067 5.8,-11.6l14,-0c-2,9.733 -6.934,17.7 -14.8,23.9c-7.867,6.2 -17.667,9.3 -29.4,9.3Z" style="fill:#00286a;fill-rule:nonzero;"/><path d="M554.415,307.615c-8.134,-0 -14.9,-1.467 -20.3,-4.4c-5.4,-2.934 -9.4,-6.734 -12,-11.4c-2.6,-4.667 -3.9,-9.8 -3.9,-15.4c-0,-6.934 1.766,-12.8 5.3,-17.6c3.533,-4.8 8.533,-8.4 15,-10.8c6.466,-2.4 13.9,-3.6 22.3,-3.6l27.2,-0c-0,-6.534 -1,-12.067 -3,-16.6c-2,-4.534 -4.9,-7.967 -8.7,-10.3c-3.8,-2.334 -8.634,-3.5 -14.5,-3.5c-6.934,-0 -12.867,1.733 -17.8,5.2c-4.934,3.466 -8,8.533 -9.2,15.2l-14.6,-0c0.8,-7.067 3.233,-13 7.3,-17.8c4.066,-4.8 9.133,-8.434 15.2,-10.9c6.066,-2.467 12.433,-3.7 19.1,-3.7c9.2,-0 16.766,1.766 22.7,5.3c5.933,3.533 10.333,8.366 13.2,14.5c2.866,6.133 4.3,13.2 4.3,21.2l-0,62.2l-12.8,-0l-0.6,-18.4c-1.334,2.8 -3.034,5.466 -5.1,8c-2.067,2.533 -4.467,4.733 -7.2,6.6c-2.734,1.866 -5.9,3.366 -9.5,4.5c-3.6,1.133 -7.734,1.7 -12.4,1.7Zm1.6,-12.4c5.066,-0 9.533,-1 13.4,-3c3.866,-2 7.2,-4.667 10,-8c2.8,-3.334 4.933,-7.134 6.4,-11.4c1.466,-4.267 2.2,-8.6 2.2,-13l-0,-3.6l-26.2,-0c-7.067,-0 -12.734,0.866 -17,2.6c-4.267,1.733 -7.334,4.066 -9.2,7c-1.867,2.933 -2.8,6.333 -2.8,10.2c-0,3.866 0.9,7.233 2.7,10.1c1.8,2.866 4.433,5.1 7.9,6.7c3.466,1.6 7.666,2.4 12.6,2.4Z" style="fill:#00286a;fill-rule:nonzero;"/><path d="M674.615,305.215l-0,-100.8l12.8,-0l1,19.4c2.133,-4.667 5,-8.6 8.6,-11.8c3.6,-3.2 7.933,-5.667 13,-7.4c5.066,-1.734 10.8,-2.6 17.2,-2.6l-0,14.6l-5.4,-0c-4.267,-0 -8.4,0.566 -12.4,1.7c-4,1.133 -7.534,3.033 -10.6,5.7c-3.067,2.666 -5.534,6.266 -7.4,10.8c-1.867,4.533 -2.8,10.2 -2.8,17l-0,53.4l-14,-0Z" style="fill:#00286a;fill-rule:nonzero;"/><path d="M785.615,307.615c-9.334,-0 -17.567,-2.2 -24.7,-6.6c-7.134,-4.4 -12.734,-10.567 -16.8,-18.5c-4.067,-7.934 -6.1,-17.234 -6.1,-27.9c-0,-10.667 2,-19.934 6,-27.8c4,-7.867 9.633,-13.967 16.9,-18.3c7.266,-4.334 15.633,-6.5 25.1,-6.5c9.733,-0 18,2.2 24.8,6.6c6.8,4.4 11.966,10.133 15.5,17.2c3.533,7.066 5.3,14.8 5.3,23.2l-0,4.1c-0,1.4 -0.067,3.033 -0.2,4.9l-82.8,-0l-0,-11.8l69.4,-0c-0.4,-10.267 -3.634,-18.2 -9.7,-23.8c-6.067,-5.6 -13.7,-8.4 -22.9,-8.4c-5.867,-0 -11.4,1.366 -16.6,4.1c-5.2,2.733 -9.367,6.733 -12.5,12c-3.134,5.266 -4.7,11.9 -4.7,19.9l-0,5.2c-0,9.066 1.633,16.6 4.9,22.6c3.266,6 7.5,10.466 12.7,13.4c5.2,2.933 10.666,4.4 16.4,4.4c7.6,-0 13.866,-1.7 18.8,-5.1c4.933,-3.4 8.466,-8.1 10.6,-14.1l13.8,-0c-1.6,5.866 -4.334,11.166 -8.2,15.9c-3.867,4.733 -8.734,8.466 -14.6,11.2c-5.867,2.733 -12.667,4.1 -20.4,4.1Z" style="fill:#00286a;fill-rule:nonzero;"/><path d="M859.015,306.215c-2.934,-0 -5.367,-1 -7.3,-3c-1.934,-2 -2.9,-4.467 -2.9,-7.4c-0,-2.934 0.966,-5.367 2.9,-7.3c1.933,-1.934 4.366,-2.9 7.3,-2.9c2.933,-0 5.366,0.966 7.3,2.9c1.933,1.933 2.9,4.366 2.9,7.3c-0,2.933 -0.967,5.4 -2.9,7.4c-1.934,2 -4.367,3 -7.3,3Z" style="fill:#00286a;fill-rule:nonzero;"/><path d="M936.415,307.615c-9.2,-0 -17.5,-2.2 -24.9,-6.6c-7.4,-4.4 -13.234,-10.567 -17.5,-18.5c-4.267,-7.934 -6.4,-17.1 -6.4,-27.5c-0,-10.8 2.133,-20.1 6.4,-27.9c4.266,-7.8 10.1,-13.934 17.5,-18.4c7.4,-4.467 15.7,-6.7 24.9,-6.7c11.733,-0 21.5,3.033 29.3,9.1c7.8,6.066 12.766,14.1 14.9,24.1l-14,-0c-1.467,-6.667 -4.967,-11.834 -10.5,-15.5c-5.534,-3.667 -12.1,-5.5 -19.7,-5.5c-6.134,-0 -11.8,1.5 -17,4.5c-5.2,3 -9.4,7.5 -12.6,13.5c-3.2,6 -4.8,13.6 -4.8,22.8c-0,6.8 0.933,12.733 2.8,17.8c1.866,5.066 4.433,9.3 7.7,12.7c3.266,3.4 6.933,5.966 11,7.7c4.066,1.733 8.366,2.6 12.9,2.6c4.933,-0 9.5,-0.834 13.7,-2.5c4.2,-1.667 7.766,-4.1 10.7,-7.3c2.933,-3.2 4.866,-7.067 5.8,-11.6l14,-0c-2,9.733 -6.934,17.7 -14.8,23.9c-7.867,6.2 -17.667,9.3 -29.4,9.3Z" style="fill:#00286a;fill-rule:nonzero;"/><path d="M1049.02,307.615c-9.2,-0 -17.5,-2.167 -24.9,-6.5c-7.4,-4.334 -13.234,-10.467 -17.5,-18.4c-4.267,-7.934 -6.4,-17.167 -6.4,-27.7c-0,-10.934 2.166,-20.334 6.5,-28.2c4.333,-7.867 10.233,-13.967 17.7,-18.3c7.466,-4.334 15.8,-6.5 25,-6.5c9.6,-0 18.066,2.166 25.4,6.5c7.333,4.333 13.133,10.433 17.4,18.3c4.266,7.866 6.4,17.266 6.4,28.2c-0,10.533 -2.167,19.766 -6.5,27.7c-4.334,7.933 -10.2,14.066 -17.6,18.4c-7.4,4.333 -15.9,6.5 -25.5,6.5Zm0.2,-12c6.266,-0 12.033,-1.534 17.3,-4.6c5.266,-3.067 9.533,-7.634 12.8,-13.7c3.266,-6.067 4.9,-13.567 4.9,-22.5c-0,-9.067 -1.6,-16.6 -4.8,-22.6c-3.2,-6 -7.434,-10.5 -12.7,-13.5c-5.267,-3 -11.034,-4.5 -17.3,-4.5c-6,-0 -11.667,1.533 -17,4.6c-5.334,3.066 -9.634,7.566 -12.9,13.5c-3.267,5.933 -4.9,13.433 -4.9,22.5c-0,8.933 1.6,16.433 4.8,22.5c3.2,6.066 7.433,10.633 12.7,13.7c5.266,3.066 10.966,4.6 17.1,4.6Z" style="fill:#00286a;fill-rule:nonzero;"/><path d="M1122.62,305.215l-0,-100.8l12.8,-0l1,15.2c3.066,-5.6 7.333,-9.934 12.8,-13c5.466,-3.067 11.533,-4.6 18.2,-4.6c5.066,-0 9.733,0.733 14,2.2c4.266,1.466 8,3.666 11.2,6.6c3.2,2.933 5.8,6.733 7.8,11.4c3.2,-6.267 7.833,-11.2 13.9,-14.8c6.066,-3.6 12.566,-5.4 19.5,-5.4c7.733,-0 14.466,1.533 20.2,4.6c5.733,3.066 10.166,7.733 13.3,14c3.133,6.266 4.7,14.2 4.7,23.8l-0,60.8l-14,-0l-0,-59.2c-0,-10.667 -2.167,-18.634 -6.5,-23.9c-4.334,-5.267 -10.5,-7.9 -18.5,-7.9c-5.334,-0 -10.2,1.433 -14.6,4.3c-4.4,2.866 -7.834,7 -10.3,12.4c-2.467,5.4 -3.7,12.1 -3.7,20.1l-0,54.2l-14,-0l-0,-59.2c-0,-10.667 -2.2,-18.634 -6.6,-23.9c-4.4,-5.267 -10.467,-7.9 -18.2,-7.9c-5.6,-0 -10.567,1.433 -14.9,4.3c-4.334,2.866 -7.767,7.066 -10.3,12.6c-2.534,5.533 -3.8,12.366 -3.8,20.5l-0,53.6l-14,-0Z" style="fill:#00286a;fill-rule:nonzero;"/><path d="M257.176,221.273c14.016,1.646 24.498,5.143 24.498,15.372c0,10.229 -7.78,16.472 -20.964,16.472c-13.184,-0 -35.067,-5.682 -48.485,-10.43" style="fill:none;fill-rule:nonzero;stroke:#000;stroke-width:8.94px;stroke-miterlimit:4;"/><path d="M262.666,237.271c-11.678,-0.927 -36.751,-4.175 -43.618,-9.744" style="fill:none;fill-rule:nonzero;stroke:#000;stroke-width:8.94px;stroke-miterlimit:4;"/><path d="M223.025,192.408c-2.106,2.223 -4.056,4.595 -5.834,7.097c1.302,0.658 2.658,1.308 4.049,1.943c7.369,3.362 16.355,6.567 25.314,8.402c2.42,0.496 4.784,-1.064 5.279,-3.484c0.495,-2.42 -1.064,-4.783 -3.484,-5.279c-8.172,-1.674 -16.512,-4.636 -23.396,-7.777c-0.662,-0.302 -1.304,-0.603 -1.928,-0.902Z"/><path d="M214.208,204.1c-1.513,2.559 -2.857,5.23 -4.015,7.998c2.129,0.988 4.415,1.98 6.752,2.947c7.702,3.188 16.201,6.206 21.946,8.022c2.355,0.745 4.868,-0.561 5.612,-2.916c0.745,-2.355 -0.561,-4.868 -2.916,-5.612c-5.516,-1.744 -13.772,-4.675 -21.222,-7.759c-2.169,-0.897 -4.248,-1.799 -6.157,-2.68Z"/><path d="M235.628,182.048c-2.859,1.805 -5.568,3.825 -8.103,6.039c6.468,3.247 13.359,6.062 18.729,6.857c2.443,0.362 4.718,-1.325 5.079,-3.769c0.362,-2.443 -1.325,-4.717 -3.769,-5.079c-3.116,-0.462 -7.348,-1.969 -11.936,-4.048Z"/><path d="M209.948,261.85c2.25,0.633 4.529,1.286 6.831,1.945l0,0c3.477,0.996 7.006,2.007 10.567,2.988c12.478,3.434 25.317,6.474 36.466,6.474c11.263,0 21.319,-3.103 28.639,-9.302c7.405,-6.272 11.612,-15.386 11.612,-26.476c-0,-11.204 -4.593,-20.297 -12.101,-26.509c-7.423,-6.141 -17.437,-9.27 -28.15,-9.27c-2.47,0 -4.473,2.003 -4.473,4.473c0,2.47 2.003,4.472 4.473,4.472c9.046,-0 16.921,2.645 22.448,7.217c5.441,4.501 8.858,11.061 8.858,19.617c-0,8.669 -3.204,15.209 -8.448,19.65c-5.33,4.514 -13.163,7.184 -22.858,7.184c-9.81,-0 -21.595,-2.715 -34.092,-6.154c-3.333,-0.918 -6.722,-1.889 -10.12,-2.862c-4.298,-1.232 -8.611,-2.467 -12.84,-3.602c0.79,3.499 1.86,6.893 3.188,10.155Z"/><path d="M222.883,281.985c11.399,3.807 24.056,6.666 36.405,6.666c18.664,-0 34.154,-4.019 45.061,-12.676c11.077,-8.791 16.804,-21.866 16.804,-38.496c-0,-16.81 -6.514,-29.568 -17.605,-37.992c-10.919,-8.294 -25.821,-12.053 -42.195,-12.053c-2.47,-0 -4.472,2.002 -4.472,4.472c-0,2.47 2.002,4.472 4.472,4.472c15.162,0 27.924,3.501 36.785,10.232c8.688,6.599 14.07,16.627 14.07,30.869c-0,14.421 -4.857,24.695 -13.42,31.491c-8.732,6.93 -21.938,10.736 -39.5,10.736c-15.648,0 -32.322,-5.15 -46.026,-10.916c2.652,4.801 5.892,9.231 9.621,13.195Z"/><path d="M630.415,305.215l-0,-100.8l14,-0l-0,100.8l-14,-0Zm7,-124.6c-2.8,-0 -5.2,-0.967 -7.2,-2.9c-2,-1.934 -3,-4.367 -3,-7.3c-0,-3.067 0.966,-5.5 2.9,-7.3c1.933,-1.8 4.366,-2.7 7.3,-2.7c2.666,-0 5,0.9 7,2.7c2,1.8 3,4.233 3,7.3c-0,2.933 -0.967,5.366 -2.9,7.3c-1.934,1.933 -4.3,2.9 -7.1,2.9Z" style="fill:#00286a;fill-rule:nonzero;"/><path d="M244.215,166.048l25.6,-0c16.533,-0 30.1,2.8 40.7,8.4c10.6,5.6 18.466,13.666 23.6,24.2c5.133,10.533 7.7,23.133 7.7,37.8c-0,14.4 -2.567,26.8 -7.7,37.2c-5.134,10.4 -13,18.4 -23.6,24c-10.6,5.6 -24.167,8.4 -40.7,8.4l-25.6,-0l-0,-11.6l25.6,-0c14.133,-0 25.4,-2.334 33.8,-7c8.4,-4.667 14.466,-11.334 18.2,-20c3.733,-8.667 5.6,-19 5.6,-31c-0,-12.134 -1.867,-22.6 -5.6,-31.4c-3.734,-8.8 -9.8,-15.567 -18.2,-20.3c-8.4,-4.734 -19.667,-7.1 -33.8,-7.1l-25.6,-0l-0,-11.6Z" style="fill:#00286a;"/></g></g><ellipse cx="739.387" cy="236.015" rx="664.092" ry="161.334" style="fill:#9cc6fa;stroke:#9cc6fa;stroke-width:14.58px;"/><g><path d="M365.415,305.215l-0,-100.8l14,-0l-0,100.8l-14,-0Zm7,-124.6c-2.8,-0 -5.2,-0.967 -7.2,-2.9c-2,-1.934 -3,-4.367 -3,-7.3c-0,-3.067 0.966,-5.5 2.9,-7.3c1.933,-1.8 4.366,-2.7 7.3,-2.7c2.666,-0 5,0.9 7,2.7c2,1.8 3,4.233 3,7.3c-0,2.933 -0.967,5.366 -2.9,7.3c-1.934,1.933 -4.3,2.9 -7.1,2.9Z" style="fill:#00286a;fill-rule:nonzero;"/><path d="M454.015,307.615c-9.2,-0 -17.5,-2.2 -24.9,-6.6c-7.4,-4.4 -13.234,-10.567 -17.5,-18.5c-4.267,-7.934 -6.4,-17.1 -6.4,-27.5c-0,-10.8 2.133,-20.1 6.4,-27.9c4.266,-7.8 10.1,-13.934 17.5,-18.4c7.4,-4.467 15.7,-6.7 24.9,-6.7c11.733,-0 21.5,3.033 29.3,9.1c7.8,6.066 12.766,14.1 14.9,24.1l-14,-0c-1.467,-6.667 -4.967,-11.834 -10.5,-15.5c-5.534,-3.667 -12.1,-5.5 -19.7,-5.5c-6.134,-0 -11.8,1.5 -17,4.5c-5.2,3 -9.4,7.5 -12.6,13.5c-3.2,6 -4.8,13.6 -4.8,22.8c-0,6.8 0.933,12.733 2.8,17.8c1.866,5.066 4.433,9.3 7.7,12.7c3.266,3.4 6.933,5.966 11,7.7c4.066,1.733 8.366,2.6 12.9,2.6c4.933,-0 9.5,-0.834 13.7,-2.5c4.2,-1.667 7.766,-4.1 10.7,-7.3c2.933,-3.2 4.866,-7.067 5.8,-11.6l14,-0c-2,9.733 -6.934,17.7 -14.8,23.9c-7.867,6.2 -17.667,9.3 -29.4,9.3Z" style="fill:#00286a;fill-rule:nonzero;"/><path d="M554.415,307.615c-8.134,-0 -14.9,-1.467 -20.3,-4.4c-5.4,-2.934 -9.4,-6.734 -12,-11.4c-2.6,-4.667 -3.9,-9.8 -3.9,-15.4c-0,-6.934 1.766,-12.8 5.3,-17.6c3.533,-4.8 8.533,-8.4 15,-10.8c6.466,-2.4 13.9,-3.6 22.3,-3.6l27.2,-0c-0,-6.534 -1,-12.067 -3,-16.6c-2,-4.534 -4.9,-7.967 -8.7,-10.3c-3.8,-2.334 -8.634,-3.5 -14.5,-3.5c-6.934,-0 -12.867,1.733 -17.8,5.2c-4.934,3.466 -8,8.533 -9.2,15.2l-14.6,-0c0.8,-7.067 3.233,-13 7.3,-17.8c4.066,-4.8 9.133,-8.434 15.2,-10.9c6.066,-2.467 12.433,-3.7 19.1,-3.7c9.2,-0 16.766,1.766 22.7,5.3c5.933,3.533 10.333,8.366 13.2,14.5c2.866,6.133 4.3,13.2 4.3,21.2l-0,62.2l-12.8,-0l-0.6,-18.4c-1.334,2.8 -3.034,5.466 -5.1,8c-2.067,2.533 -4.467,4.733 -7.2,6.6c-2.734,1.866 -5.9,3.366 -9.5,4.5c-3.6,1.133 -7.734,1.7 -12.4,1.7Zm1.6,-12.4c5.066,-0 9.533,-1 13.4,-3c3.866,-2 7.2,-4.667 10,-8c2.8,-3.334 4.933,-7.134 6.4,-11.4c1.466,-4.267 2.2,-8.6 2.2,-13l-0,-3.6l-26.2,-0c-7.067,-0 -12.734,0.866 -17,2.6c-4.267,1.733 -7.334,4.066 -9.2,7c-1.867,2.933 -2.8,6.333 -2.8,10.2c-0,3.866 0.9,7.233 2.7,10.1c1.8,2.866 4.433,5.1 7.9,6.7c3.466,1.6 7.666,2.4 12.6,2.4Z" style="fill:#00286a;fill-rule:nonzero;"/><path d="M674.615,305.215l-0,-100.8l12.8,-0l1,19.4c2.133,-4.667 5,-8.6 8.6,-11.8c3.6,-3.2 7.933,-5.667 13,-7.4c5.066,-1.734 10.8,-2.6 17.2,-2.6l-0,14.6l-5.4,-0c-4.267,-0 -8.4,0.566 -12.4,1.7c-4,1.133 -7.534,3.033 -10.6,5.7c-3.067,2.666 -5.534,6.266 -7.4,10.8c-1.867,4.533 -2.8,10.2 -2.8,17l-0,53.4l-14,-0Z" style="fill:#00286a;fill-rule:nonzero;"/><path d="M785.615,307.615c-9.334,-0 -17.567,-2.2 -24.7,-6.6c-7.134,-4.4 -12.734,-10.567 -16.8,-18.5c-4.067,-7.934 -6.1,-17.234 -6.1,-27.9c-0,-10.667 2,-19.934 6,-27.8c4,-7.867 9.633,-13.967 16.9,-18.3c7.266,-4.334 15.633,-6.5 25.1,-6.5c9.733,-0 18,2.2 24.8,6.6c6.8,4.4 11.966,10.133 15.5,17.2c3.533,7.066 5.3,14.8 5.3,23.2l-0,4.1c-0,1.4 -0.067,3.033 -0.2,4.9l-82.8,-0l-0,-11.8l69.4,-0c-0.4,-10.267 -3.634,-18.2 -9.7,-23.8c-6.067,-5.6 -13.7,-8.4 -22.9,-8.4c-5.867,-0 -11.4,1.366 -16.6,4.1c-5.2,2.733 -9.367,6.733 -12.5,12c-3.134,5.266 -4.7,11.9 -4.7,19.9l-0,5.2c-0,9.066 1.633,16.6 4.9,22.6c3.266,6 7.5,10.466 12.7,13.4c5.2,2.933 10.666,4.4 16.4,4.4c7.6,-0 13.866,-1.7 18.8,-5.1c4.933,-3.4 8.466,-8.1 10.6,-14.1l13.8,-0c-1.6,5.866 -4.334,11.166 -8.2,15.9c-3.867,4.733 -8.734,8.466 -14.6,11.2c-5.867,2.733 -12.667,4.1 -20.4,4.1Z" style="fill:#00286a;fill-rule:nonzero;"/><path d="M859.015,306.215c-2.934,-0 -5.367,-1 -7.3,-3c-1.934,-2 -2.9,-4.467 -2.9,-7.4c-0,-2.934 0.966,-5.367 2.9,-7.3c1.933,-1.934 4.366,-2.9 7.3,-2.9c2.933,-0 5.366,0.966 7.3,2.9c1.933,1.933 2.9,4.366 2.9,7.3c-0,2.933 -0.967,5.4 -2.9,7.4c-1.934,2 -4.367,3 -7.3,3Z" style="fill:#00286a;fill-rule:nonzero;"/><path d="M936.415,307.615c-9.2,-0 -17.5,-2.2 -24.9,-6.6c-7.4,-4.4 -13.234,-10.567 -17.5,-18.5c-4.267,-7.934 -6.4,-17.1 -6.4,-27.5c-0,-10.8 2.133,-20.1 6.4,-27.9c4.266,-7.8 10.1,-13.934 17.5,-18.4c7.4,-4.467 15.7,-6.7 24.9,-6.7c11.733,-0 21.5,3.033 29.3,9.1c7.8,6.066 12.766,14.1 14.9,24.1l-14,-0c-1.467,-6.667 -4.967,-11.834 -10.5,-15.5c-5.534,-3.667 -12.1,-5.5 -19.7,-5.5c-6.134,-0 -11.8,1.5 -17,4.5c-5.2,3 -9.4,7.5 -12.6,13.5c-3.2,6 -4.8,13.6 -4.8,22.8c-0,6.8 0.933,12.733 2.8,17.8c1.866,5.066 4.433,9.3 7.7,12.7c3.266,3.4 6.933,5.966 11,7.7c4.066,1.733 8.366,2.6 12.9,2.6c4.933,-0 9.5,-0.834 13.7,-2.5c4.2,-1.667 7.766,-4.1 10.7,-7.3c2.933,-3.2 4.866,-7.067 5.8,-11.6l14,-0c-2,9.733 -6.934,17.7 -14.8,23.9c-7.867,6.2 -17.667,9.3 -29.4,9.3Z" style="fill:#00286a;fill-rule:nonzero;"/><path d="M1049.02,307.615c-9.2,-0 -17.5,-2.167 -24.9,-6.5c-7.4,-4.334 -13.234,-10.467 -17.5,-18.4c-4.267,-7.934 -6.4,-17.167 -6.4,-27.7c-0,-10.934 2.166,-20.334 6.5,-28.2c4.333,-7.867 10.233,-13.967 17.7,-18.3c7.466,-4.334 15.8,-6.5 25,-6.5c9.6,-0 18.066,2.166 25.4,6.5c7.333,4.333 13.133,10.433 17.4,18.3c4.266,7.866 6.4,17.266 6.4,28.2c-0,10.533 -2.167,19.766 -6.5,27.7c-4.334,7.933 -10.2,14.066 -17.6,18.4c-7.4,4.333 -15.9,6.5 -25.5,6.5Zm0.2,-12c6.266,-0 12.033,-1.534 17.3,-4.6c5.266,-3.067 9.533,-7.634 12.8,-13.7c3.266,-6.067 4.9,-13.567 4.9,-22.5c-0,-9.067 -1.6,-16.6 -4.8,-22.6c-3.2,-6 -7.434,-10.5 -12.7,-13.5c-5.267,-3 -11.034,-4.5 -17.3,-4.5c-6,-0 -11.667,1.533 -17,4.6c-5.334,3.066 -9.634,7.566 -12.9,13.5c-3.267,5.933 -4.9,13.433 -4.9,22.5c-0,8.933 1.6,16.433 4.8,22.5c3.2,6.066 7.433,10.633 12.7,13.7c5.266,3.066 10.966,4.6 17.1,4.6Z" style="fill:#00286a;fill-rule:nonzero;"/><path d="M1122.62,305.215l-0,-100.8l12.8,-0l1,15.2c3.066,-5.6 7.333,-9.934 12.8,-13c5.466,-3.067 11.533,-4.6 18.2,-4.6c5.066,-0 9.733,0.733 14,2.2c4.266,1.466 8,3.666 11.2,6.6c3.2,2.933 5.8,6.733 7.8,11.4c3.2,-6.267 7.833,-11.2 13.9,-14.8c6.066,-3.6 12.566,-5.4 19.5,-5.4c7.733,-0 14.466,1.533 20.2,4.6c5.733,3.066 10.166,7.733 13.3,14c3.133,6.266 4.7,14.2 4.7,23.8l-0,60.8l-14,-0l-0,-59.2c-0,-10.667 -2.167,-18.634 -6.5,-23.9c-4.334,-5.267 -10.5,-7.9 -18.5,-7.9c-5.334,-0 -10.2,1.433 -14.6,4.3c-4.4,2.866 -7.834,7 -10.3,12.4c-2.467,5.4 -3.7,12.1 -3.7,20.1l-0,54.2l-14,-0l-0,-59.2c-0,-10.667 -2.2,-18.634 -6.6,-23.9c-4.4,-5.267 -10.467,-7.9 -18.2,-7.9c-5.6,-0 -10.567,1.433 -14.9,4.3c-4.334,2.866 -7.767,7.066 -10.3,12.6c-2.534,5.533 -3.8,12.366 -3.8,20.5l-0,53.6l-14,-0Z" style="fill:#00286a;fill-rule:nonzero;"/><path d="M257.176,221.273c14.016,1.646 24.498,5.143 24.498,15.372c0,10.229 -7.78,16.472 -20.964,16.472c-13.184,-0 -35.067,-5.682 -48.485,-10.43" style="fill:none;fill-rule:nonzero;stroke:#000;stroke-width:8.94px;stroke-miterlimit:4;"/><path d="M262.666,237.271c-11.678,-0.927 -36.751,-4.175 -43.618,-9.744" style="fill:none;fill-rule:nonzero;stroke:#000;stroke-width:8.94px;stroke-miterlimit:4;"/><path d="M223.025,192.408c-2.106,2.223 -4.056,4.595 -5.834,7.097c1.302,0.658 2.658,1.308 4.049,1.943c7.369,3.362 16.355,6.567 25.314,8.402c2.42,0.496 4.784,-1.064 5.279,-3.484c0.495,-2.42 -1.064,-4.783 -3.484,-5.279c-8.172,-1.674 -16.512,-4.636 -23.396,-7.777c-0.662,-0.302 -1.304,-0.603 -1.928,-0.902Z"/><path d="M214.208,204.1c-1.513,2.559 -2.857,5.23 -4.015,7.998c2.129,0.988 4.415,1.98 6.752,2.947c7.702,3.188 16.201,6.206 21.946,8.022c2.355,0.745 4.868,-0.561 5.612,-2.916c0.745,-2.355 -0.561,-4.868 -2.916,-5.612c-5.516,-1.744 -13.772,-4.675 -21.222,-7.759c-2.169,-0.897 -4.248,-1.799 -6.157,-2.68Z"/><path d="M235.628,182.048c-2.859,1.805 -5.568,3.825 -8.103,6.039c6.468,3.247 13.359,6.062 18.729,6.857c2.443,0.362 4.718,-1.325 5.079,-3.769c0.362,-2.443 -1.325,-4.717 -3.769,-5.079c-3.116,-0.462 -7.348,-1.969 -11.936,-4.048Z"/><path d="M209.948,261.85c2.25,0.633 4.529,1.286 6.831,1.945l0,0c3.477,0.996 7.006,2.007 10.567,2.988c12.478,3.434 25.317,6.474 36.466,6.474c11.263,0 21.319,-3.103 28.639,-9.302c7.405,-6.272 11.612,-15.386 11.612,-26.476c-0,-11.204 -4.593,-20.297 -12.101,-26.509c-7.423,-6.141 -17.437,-9.27 -28.15,-9.27c-2.47,0 -4.473,2.003 -4.473,4.473c0,2.47 2.003,4.472 4.473,4.472c9.046,-0 16.921,2.645 22.448,7.217c5.441,4.501 8.858,11.061 8.858,19.617c-0,8.669 -3.204,15.209 -8.448,19.65c-5.33,4.514 -13.163,7.184 -22.858,7.184c-9.81,-0 -21.595,-2.715 -34.092,-6.154c-3.333,-0.918 -6.722,-1.889 -10.12,-2.862c-4.298,-1.232 -8.611,-2.467 -12.84,-3.602c0.79,3.499 1.86,6.893 3.188,10.155Z"/><path d="M222.883,281.985c11.399,3.807 24.056,6.666 36.405,6.666c18.664,-0 34.154,-4.019 45.061,-12.676c11.077,-8.791 16.804,-21.866 16.804,-38.496c-0,-16.81 -6.514,-29.568 -17.605,-37.992c-10.919,-8.294 -25.821,-12.053 -42.195,-12.053c-2.47,-0 -4.472,2.002 -4.472,4.472c-0,2.47 2.002,4.472 4.472,4.472c15.162,0 27.924,3.501 36.785,10.232c8.688,6.599 14.07,16.627 14.07,30.869c-0,14.421 -4.857,24.695 -13.42,31.491c-8.732,6.93 -21.938,10.736 -39.5,10.736c-15.648,0 -32.322,-5.15 -46.026,-10.916c2.652,4.801 5.892,9.231 9.621,13.195Z"/><path d="M630.415,305.215l-0,-100.8l14,-0l-0,100.8l-14,-0Zm7,-124.6c-2.8,-0 -5.2,-0.967 -7.2,-2.9c-2,-1.934 -3,-4.367 -3,-7.3c-0,-3.067 0.966,-5.5 2.9,-7.3c1.933,-1.8 4.366,-2.7 7.3,-2.7c2.666,-0 5,0.9 7,2.7c2,1.8 3,4.233 3,7.3c-0,2.933 -0.967,5.366 -2.9,7.3c-1.934,1.933 -4.3,2.9 -7.1,2.9Z" style="fill:#00286a;fill-rule:nonzero;"/><path d="M244.215,166.048l25.6,-0c16.533,-0 30.1,2.8 40.7,8.4c10.6,5.6 18.466,13.666 23.6,24.2c5.133,10.533 7.7,23.133 7.7,37.8c-0,14.4 -2.567,26.8 -7.7,37.2c-5.134,10.4 -13,18.4 -23.6,24c-10.6,5.6 -24.167,8.4 -40.7,8.4l-25.6,-0l-0,-11.6l25.6,-0c14.133,-0 25.4,-2.334 33.8,-7c8.4,-4.667 14.466,-11.334 18.2,-20c3.733,-8.667 5.6,-19 5.6,-31c-0,-12.134 -1.867,-22.6 -5.6,-31.4c-3.734,-8.8 -9.8,-15.567 -18.2,-20.3c-8.4,-4.734 -19.667,-7.1 -33.8,-7.1l-25.6,-0l-0,-11.6Z" style="fill:#00286a;"/></g></svg>